<svg width="285" height="268" viewBox="0 0 285 268" fill="none" xmlns="http://www.w3.org/2000/svg">
<g clip-path="url(#clip0_164_4575)">
<path d="M133.873 116.54C132.439 113.368 132.979 110.046 135.079 109.122C137.179 108.197 140.043 110.02 141.477 113.193C142.068 114.453 142.337 115.838 142.26 117.231L148.161 130.75L141.506 133.425L136.396 119.814C135.293 118.939 134.429 117.816 133.873 116.54Z" fill="#C83C2A" fill-opacity="0.9"/>
<path d="M174.653 122.28C178.25 125.676 178.025 131.471 174.175 134.577L155.32 149.786C153.262 151.446 150.208 150.86 148.91 148.555C143.955 140.524 143.021 140.084 140.141 131.852L148.262 129.008L152.841 134.749L162.839 122.941C165.86 119.372 171.253 119.071 174.653 122.28Z" fill="#C83C2A" fill-opacity="0.9"/>
<path d="M101.855 101.743V95.7582H42.6211V101.743H101.855Z" fill="#DFDFDF"/>
<path d="M251.843 101.743V95.7582H192.609V101.743H251.843Z" fill="#DFDFDF"/>
<path d="M75.4348 75.0873H65.3078C61.3802 75.0873 58.1963 78.275 58.1963 82.2072V119.651C58.1963 123.583 61.3802 126.771 65.3078 126.771H75.4348C79.3624 126.771 82.5463 123.583 82.5463 119.651V82.2072C82.5463 78.275 79.3624 75.0873 75.4348 75.0873Z" fill="#3F3D56"/>
<path d="M235.171 75.0873H225.044C221.117 75.0873 217.933 78.275 217.933 82.2072V119.651C217.933 123.583 221.117 126.771 225.044 126.771H235.171C239.099 126.771 242.283 123.583 242.283 119.651V82.2072C242.283 78.275 239.099 75.0873 235.171 75.0873Z" fill="#3F3D56"/>
<path d="M228.752 114.094H74.0908C68.7138 114.094 64.1129 110.249 63.151 104.953L57.2364 72.3837C54.6641 58.2196 59.9938 43.7888 71.1481 34.7081L82.8108 9.58589C85.5141 3.76255 91.4054 0 97.8192 0H184.941C189.572 0 194.022 1.96175 197.149 5.38242L218.579 28.8248C234.258 39.4025 243.153 57.6968 241.796 76.5776L239.843 103.76C239.426 109.554 234.555 114.094 228.752 114.094Z" fill="#3B7CBA"/>
<path d="M202.357 32.424H85.5086C83.4792 32.424 81.6066 31.4075 80.4993 29.7052C79.392 28.0025 79.2209 25.8765 80.0418 24.0185L86.2008 10.0773C87.1381 7.95554 89.2406 6.55708 91.5568 6.51471L191.167 6.63613C193.063 6.62375 194.875 7.47844 196.025 8.9826L207.104 22.8024C208.497 24.6242 208.731 27.0331 207.716 29.09C206.702 31.1465 204.648 32.424 202.357 32.424Z" fill="white"/>
<path d="M219.88 69.2363C225.529 69.2363 230.107 64.6521 230.107 58.9972C230.107 53.3422 225.529 48.758 219.88 48.758C214.232 48.758 209.653 53.3422 209.653 58.9972C209.653 64.6521 214.232 69.2363 219.88 69.2363Z" fill="white"/>
<path d="M85.4682 69.2363C91.1165 69.2363 95.6952 64.6521 95.6952 58.9972C95.6952 53.3422 91.1165 48.758 85.4682 48.758C79.82 48.758 75.2412 53.3422 75.2412 58.9972C75.2412 64.6521 79.82 69.2363 85.4682 69.2363Z" fill="white"/>
<path d="M209.897 97.2721H98.3735V97.0283C98.3735 91.2478 103.071 86.5453 108.844 86.5453H199.426C205.2 86.5453 209.897 91.2478 209.897 97.0283V97.2721Z" fill="#3F3D56"/>
<path d="M72.7871 36.8556C72.1836 36.8556 71.5789 36.6632 71.0712 36.2747L66.9879 33.1492C66.5825 32.8388 66.078 32.6678 65.5674 32.6678H56.6502C55.63 32.6678 54.7157 32.1402 54.2045 31.256C53.6934 30.3723 53.6915 29.3157 54.1994 28.4301L56.3763 24.6332C56.8111 23.8747 57.5876 23.3529 58.4537 23.2372L69.6102 21.7478C71.0007 21.563 72.2953 22.4044 72.6932 23.749L75.4971 33.2235C75.8059 34.2667 75.4822 35.4095 74.6722 36.1356C74.1385 36.6137 73.4637 36.8556 72.7871 36.8556Z" fill="#DFDFDF"/>
<path d="M217.464 34.9053C216.788 34.9053 216.113 34.6634 215.579 34.1854C214.769 33.4592 214.446 32.3165 214.754 31.2732L217.558 21.7988C217.956 20.4532 219.253 19.6089 220.641 19.798L231.798 21.2869C232.664 21.4026 233.44 21.9245 233.875 22.683L236.052 26.4798C236.56 27.3654 236.558 28.422 236.047 29.3058C235.536 30.19 234.622 30.7176 233.601 30.7176H224.684C224.173 30.7176 223.669 30.8885 223.264 31.199L219.18 34.3244C218.673 34.713 218.068 34.9053 217.464 34.9053Z" fill="#DFDFDF"/>
<path d="M48.5989 18.4988H42.6211V263.879H48.5989V18.4988Z" fill="#DFDFDF"/>
<path d="M255.104 18.4988H249.126V263.879H255.104V18.4988Z" fill="#DFDFDF"/>
<path d="M187.235 245.556V256.671L195.629 256.942L195.279 245.556H187.235Z" fill="#FFAFAF"/>
<path d="M185.574 251.741C185.461 251.741 185.35 251.755 185.242 251.786C183.727 252.219 174.958 260.057 172.307 262.449C171.979 262.745 171.805 263.167 171.829 263.607C171.853 264.045 172.071 264.444 172.427 264.7C174.438 266.15 178.557 268.443 183.555 267.517C185.854 267.09 188.175 266.822 190.222 266.586C194.604 266.079 198.066 265.679 198.066 264.126C198.066 261.49 197.342 254.544 196.433 254.253C196.351 254.228 196.255 254.291 196.145 254.445C194.755 256.394 189.981 255.357 189.778 255.312L189.725 255.3L189.695 255.255C189.67 255.218 187.332 251.741 185.574 251.741Z" fill="#2F2E41"/>
<path d="M171.531 245.556V256.671L179.924 256.942L179.575 245.556H171.531Z" fill="#FFAFAF"/>
<path d="M168.146 165.993L163.679 169.381L162.866 207.604L170.448 249.352L180.331 249.758L180.601 209.909L193.327 173.583L190.755 165.044L168.146 165.993Z" fill="#2F2E41"/>
<path d="M188.995 172.499L193.327 173.583L196.441 249.352L185.204 248.403L177.758 194.863L188.995 172.499Z" fill="#2F2E41"/>
<path d="M165.538 268C161.686 268 158.557 266.295 156.885 265.146C156.38 264.799 156.068 264.248 156.028 263.634C155.987 263.014 156.229 262.421 156.689 262.006C160.838 258.27 168.014 251.94 169.463 251.525C171.341 250.987 173.86 254.582 174.185 255.059C174.709 255.166 179.008 255.988 180.221 254.288C180.452 253.964 180.669 253.949 180.811 253.995C182.108 254.411 182.632 262.765 182.632 264.126C182.632 265.921 179.242 266.312 174.549 266.855C172.506 267.091 170.19 267.359 167.9 267.783C167.088 267.934 166.299 268 165.538 268Z" fill="#2F2E41"/>
<path d="M177.43 116.484L180.514 122.705L168.857 128.341L169 118.369L177.43 116.484Z" fill="#FFAFAF"/>
<path d="M168.899 121.19C174.692 121.19 179.387 116.489 179.387 110.689C179.387 104.89 174.692 100.188 168.899 100.188C163.106 100.188 158.411 104.89 158.411 110.689C158.411 116.489 163.106 121.19 168.899 121.19Z" fill="#FFAFAF"/>
<path d="M168.828 125.916L179.582 119.554C187.47 125.092 194.039 126.387 194.247 136.031L192.794 159.033L192.879 168.94C192.915 173.099 189.557 176.489 185.403 176.489H170.047C165.983 176.489 162.955 172.735 163.811 168.758L166.71 155.281L163.614 129.016L168.828 125.916Z" fill="#C83C2A" fill-opacity="0.9"/>
<path d="M179.685 115.973L177.746 117.364C177.746 117.364 177.175 111.302 176.388 111.033C175.601 110.763 174.538 112.161 174.538 112.161L173.763 114.436L171.197 113.366C171.197 113.366 168.227 111.764 167.177 111.406C166.128 111.047 166.287 108.002 166.287 108.002C166.287 108.002 153.685 109.729 155.578 102.455C155.578 102.455 156.23 97.1044 157.626 98.1679C159.021 99.2314 159.04 96.5977 159.04 96.5977L162.202 95.9179C162.202 95.9179 166.54 90.0665 175.099 95.0442C183.657 100.022 179.685 115.973 179.685 115.973Z" fill="#2F2E41"/>
<path d="M157.796 139.216L154.963 138.784C154.172 138.663 153.623 137.917 153.743 137.125L154.09 134.849C153.061 135.485 152.307 136.55 152.11 137.84C151.807 139.831 152.931 141.706 154.714 142.436L152.234 158.728C152.228 158.769 152.229 158.809 152.228 158.85C150.304 159.01 148.667 160.467 148.364 162.462C148.186 163.631 148.499 164.762 149.15 165.644L149.462 163.594C149.582 162.802 150.328 162.253 151.119 162.373L153.953 162.806C154.744 162.926 155.293 163.673 155.172 164.465L154.826 166.741C155.854 166.105 156.609 165.04 156.805 163.749C157.109 161.754 155.98 159.876 154.19 159.149C154.201 159.11 154.214 159.072 154.221 159.031L156.7 142.739C158.619 142.573 160.249 141.119 160.552 139.128C160.73 137.959 160.416 136.828 159.766 135.946L159.454 137.996C159.333 138.788 158.587 139.337 157.796 139.216Z" fill="#3F3D56"/>
<path d="M152.518 153.392C149.118 152.659 146.773 150.249 147.28 148.009C147.787 145.77 150.954 144.549 154.355 145.282C155.718 145.556 156.989 146.164 158.063 147.054L172.427 150.348L170.615 157.295L156.647 153.31C155.289 153.677 153.873 153.705 152.518 153.392Z" fill="#FFAFAF"/>
<path d="M181.386 123.99C186.253 123.115 190.771 126.744 190.974 131.69L191.968 155.912C192.077 158.555 189.789 160.664 187.167 160.338C177.771 159.547 178.431 160.511 170.109 157.932L170.667 149.078L178.421 148.96L174.889 133.89C173.821 129.336 176.787 124.816 181.386 123.99Z" fill="#C83C2A" fill-opacity="0.9"/>
<path d="M76.2031 149.506L81.9084 155.881L90.1308 153.309L91.9857 161.593L100.26 163.45L97.7278 171.682L104.059 177.395L97.7278 183.107L100.26 191.339L91.9857 193.196L90.1308 201.48L81.9084 198.908L76.2031 205.283L70.4978 198.908L62.2754 201.48L60.4205 193.196L52.1461 191.339L54.6784 183.107L48.3477 177.395L54.6784 171.682L52.1461 163.45L60.4205 161.593L62.2754 153.309L70.4978 155.881L76.2031 149.506Z" fill="#8BC34A"/>
<path d="M89.6267 165.481L72.4045 182.718L65.3115 175.621L61.77 179.167L72.4045 189.819L93.1669 169.027L89.6267 165.481Z" fill="#CCFF90"/>
</g>
<defs>
<clipPath id="clip0_164_4575">
<rect width="284.242" height="268" fill="white"/>
</clipPath>
</defs>
</svg>
