<svg width="29" height="29" viewBox="0 0 29 29" fill="none" xmlns="http://www.w3.org/2000/svg">
<g id="keyboard_backspace">
<mask id="mask0_212_2864" style="mask-type:alpha" maskUnits="userSpaceOnUse" x="0" y="0" width="29" height="29">
<rect id="Bounding box" width="29" height="29" fill="#D9D9D9"/>
</mask>
<g mask="url(#mask0_212_2864)">
<path id="keyboard_backspace_2" d="M10.1797 20.6951L4.74922 15.2646C4.63614 15.1515 4.55636 15.0317 4.50988 14.9052C4.46342 14.7787 4.44019 14.6431 4.44019 14.4986C4.44019 14.354 4.46342 14.2189 4.50988 14.0935C4.55636 13.968 4.63614 13.8487 4.74922 13.7356L10.2099 8.2749C10.374 8.10758 10.5754 8.02393 10.814 8.02393C11.0526 8.02393 11.2665 8.11849 11.4556 8.30761C11.629 8.48099 11.7157 8.69238 11.7157 8.94177C11.7157 9.19117 11.6282 9.4034 11.4531 9.57845L7.4377 13.5939H24.1081C24.3649 13.5939 24.5801 13.6808 24.7538 13.8545C24.9275 14.0283 25.0143 14.2436 25.0143 14.5005C25.0143 14.7574 24.9275 14.9726 24.7538 15.1461C24.5801 15.3196 24.3649 15.4063 24.1081 15.4063H7.4377L11.4833 19.452C11.6506 19.616 11.7343 19.8174 11.7343 20.056C11.7343 20.2946 11.6397 20.5085 11.4506 20.6977C11.2772 20.871 11.0658 20.9577 10.8164 20.9577C10.567 20.9577 10.3548 20.8702 10.1797 20.6951Z" fill="#112F56"/>
</g>
</g>
</svg>
